<svg xmlns="http://www.w3.org/2000/svg" width="1082.119" height="806.309" viewBox="0 0 1082.119 806.309">
  <g id="Sign_up-rafiki" data-name="Sign up-rafiki" transform="translate(0 -41.25)">
    <g id="freepik--background-complete--inject-12" transform="translate(0 41.25)">
      <rect id="Rectangle_6" data-name="Rectangle 6" width="1082.119" height="0.541" transform="translate(0 708.572)" fill="#ebebeb"/>
      <rect id="Rectangle_7" data-name="Rectangle 7" width="71.68" height="0.541" transform="translate(902.011 743.394)" fill="#ebebeb"/>
      <rect id="Rectangle_8" data-name="Rectangle 8" width="18.807" height="0.541" transform="translate(698.032 749.281)" fill="#ebebeb"/>
      <rect id="Rectangle_9" data-name="Rectangle 9" width="41.532" height="0.541" transform="translate(858.315 723.31)" fill="#ebebeb"/>
      <rect id="Rectangle_10" data-name="Rectangle 10" width="93.473" height="0.541" transform="translate(113.536 726.946)" fill="#ebebeb"/>
      <rect id="Rectangle_11" data-name="Rectangle 11" width="13.7" height="0.541" transform="translate(226.293 726.946)" fill="#ebebeb"/>
      <rect id="Rectangle_12" data-name="Rectangle 12" width="202.746" height="0.541" transform="translate(284.532 736.079)" fill="#ebebeb"/>
      <path id="Tracé_1" data-name="Tracé 1" d="M458.886,653.3H40.994a12.358,12.358,0,0,1-12.336-12.358V53.5A12.358,12.358,0,0,1,40.994,41.25H458.886a12.358,12.358,0,0,1,12.358,12.358V640.939A12.358,12.358,0,0,1,458.886,653.3ZM40.994,41.683A11.817,11.817,0,0,0,29.2,53.5V640.939a11.817,11.817,0,0,0,11.8,11.817H458.886A11.838,11.838,0,0,0,470.7,640.939V53.5a11.838,11.838,0,0,0-11.817-11.817Z" transform="translate(54.038 -41.25)" fill="#ebebeb"/>
      <path id="Tracé_2" data-name="Tracé 2" d="M621.147,653.3H203.233a12.38,12.38,0,0,1-12.358-12.358V53.5a12.379,12.379,0,0,1,12.358-12.25H621.147A12.358,12.358,0,0,1,633.462,53.5V640.939A12.358,12.358,0,0,1,621.147,653.3ZM203.233,41.683A11.838,11.838,0,0,0,191.416,53.5V640.939a11.838,11.838,0,0,0,11.817,11.817H621.147a11.839,11.839,0,0,0,11.817-11.817V53.5a11.839,11.839,0,0,0-11.817-11.817Z" transform="translate(359.924 -41.25)" fill="#ebebeb"/>
      <rect id="Rectangle_13" data-name="Rectangle 13" width="307.279" height="450.529" transform="translate(217.203 257.285)" fill="#f0f0f0"/>
      <rect id="Rectangle_14" data-name="Rectangle 14" width="285.571" height="83.215" transform="translate(228.046 271.46)" fill="#e0e0e0"/>
      <rect id="Rectangle_15" data-name="Rectangle 15" width="16.232" height="69.732" transform="translate(228.046 284.922)" fill="#ebebeb"/>
      <rect id="Rectangle_16" data-name="Rectangle 16" width="16.232" height="69.732" transform="translate(306.499 284.922)" fill="#ebebeb"/>
      <rect id="Rectangle_17" data-name="Rectangle 17" width="16.232" height="69.732" transform="matrix(0.985, -0.17, 0.17, 0.985, 395.779, 285.927)" fill="#ebebeb"/>
      <rect id="Rectangle_18" data-name="Rectangle 18" width="16.232" height="60.555" transform="translate(248.152 294.12)" fill="#ebebeb"/>
      <rect id="Rectangle_19" data-name="Rectangle 19" width="16.232" height="60.555" transform="translate(285.441 294.12)" fill="#ebebeb"/>
      <rect id="Rectangle_20" data-name="Rectangle 20" width="16.232" height="60.555" transform="translate(379.564 294.12)" fill="#ebebeb"/>
      <rect id="Rectangle_21" data-name="Rectangle 21" width="16.232" height="60.555" transform="translate(328.205 295.539) rotate(-12.53)" fill="#ebebeb"/>
      <rect id="Rectangle_22" data-name="Rectangle 22" width="8.116" height="73.195" transform="translate(270.292 281.459)" fill="#ebebeb"/>
      <rect id="Rectangle_23" data-name="Rectangle 23" width="8.116" height="73.195" transform="translate(366.773 281.459)" fill="#ebebeb"/>
      <rect id="Rectangle_24" data-name="Rectangle 24" width="285.571" height="83.215" transform="translate(513.639 451.07) rotate(180)" fill="#e0e0e0"/>
      <rect id="Rectangle_25" data-name="Rectangle 25" width="16.232" height="69.732" transform="translate(513.617 451.049) rotate(180)" fill="#ebebeb"/>
      <rect id="Rectangle_26" data-name="Rectangle 26" width="16.232" height="69.732" transform="translate(435.185 451.049) rotate(180)" fill="#ebebeb"/>
      <rect id="Rectangle_27" data-name="Rectangle 27" width="16.232" height="69.732" transform="matrix(-0.985, -0.17, 0.17, -0.985, 334.069, 451.032)" fill="#ebebeb"/>
      <rect id="Rectangle_28" data-name="Rectangle 28" width="16.232" height="60.555" transform="translate(493.511 451.071) rotate(180)" fill="#ebebeb"/>
      <rect id="Rectangle_29" data-name="Rectangle 29" width="16.232" height="60.555" transform="translate(456.243 451.071) rotate(180)" fill="#ebebeb"/>
      <rect id="Rectangle_30" data-name="Rectangle 30" width="16.232" height="60.555" transform="translate(362.12 451.071) rotate(180)" fill="#ebebeb"/>
      <rect id="Rectangle_31" data-name="Rectangle 31" width="16.232" height="60.555" transform="translate(400.394 451.056) rotate(-167.47)" fill="#ebebeb"/>
      <rect id="Rectangle_32" data-name="Rectangle 32" width="8.116" height="73.195" transform="translate(471.371 451.049) rotate(180)" fill="#ebebeb"/>
      <rect id="Rectangle_33" data-name="Rectangle 33" width="8.116" height="73.195" transform="translate(374.911 451.049) rotate(180)" fill="#ebebeb"/>
      <rect id="Rectangle_34" data-name="Rectangle 34" width="16.232" height="69.732" transform="translate(228.046 381.317)" fill="#ebebeb"/>
      <rect id="Rectangle_35" data-name="Rectangle 35" width="16.232" height="60.555" transform="translate(248.152 390.493)" fill="#ebebeb"/>
      <rect id="Rectangle_36" data-name="Rectangle 36" width="16.232" height="60.555" transform="translate(285.441 390.493)" fill="#ebebeb"/>
      <rect id="Rectangle_37" data-name="Rectangle 37" width="8.116" height="73.195" transform="translate(270.292 377.854)" fill="#ebebeb"/>
      <rect id="Rectangle_38" data-name="Rectangle 38" width="285.571" height="83.215" transform="translate(228.046 464.229)" fill="#e0e0e0"/>
      <rect id="Rectangle_39" data-name="Rectangle 39" width="16.232" height="69.732" transform="translate(391.965 477.691)" fill="#ebebeb"/>
      <rect id="Rectangle_40" data-name="Rectangle 40" width="16.232" height="69.732" transform="matrix(0.985, -0.17, 0.17, 0.985, 481.259, 478.691)" fill="#ebebeb"/>
      <rect id="Rectangle_41" data-name="Rectangle 41" width="16.232" height="60.555" transform="translate(333.617 486.889)" fill="#ebebeb"/>
      <rect id="Rectangle_42" data-name="Rectangle 42" width="16.232" height="60.555" transform="translate(370.907 486.889)" fill="#ebebeb"/>
      <rect id="Rectangle_43" data-name="Rectangle 43" width="16.232" height="60.555" transform="translate(465.03 486.889)" fill="#ebebeb"/>
      <rect id="Rectangle_44" data-name="Rectangle 44" width="16.232" height="60.555" transform="translate(413.678 488.31) rotate(-12.53)" fill="#ebebeb"/>
      <rect id="Rectangle_45" data-name="Rectangle 45" width="8.116" height="73.195" transform="translate(355.758 474.228)" fill="#ebebeb"/>
      <rect id="Rectangle_46" data-name="Rectangle 46" width="8.116" height="73.195" transform="translate(452.239 474.228)" fill="#ebebeb"/>
      <rect id="Rectangle_47" data-name="Rectangle 47" width="16.232" height="69.732" transform="matrix(0.985, -0.17, 0.17, 0.985, 294.621, 478.708)" fill="#ebebeb"/>
      <rect id="Rectangle_48" data-name="Rectangle 48" width="16.232" height="60.555" transform="translate(278.386 486.889)" fill="#ebebeb"/>
      <rect id="Rectangle_49" data-name="Rectangle 49" width="16.232" height="60.555" transform="translate(227.043 488.31) rotate(-12.53)" fill="#ebebeb"/>
      <rect id="Rectangle_50" data-name="Rectangle 50" width="8.116" height="73.195" transform="translate(265.617 474.228)" fill="#ebebeb"/>
      <rect id="Rectangle_51" data-name="Rectangle 51" width="53.024" height="451.698" transform="translate(217.203 708.983) rotate(180)" fill="#e0e0e0"/>
      <path id="Tracé_3" data-name="Tracé 3" d="M273.51,418.579H228.473l23.677-192.92a17.184,17.184,0,0,1,16.6-14.782H465.175L436.369,418.493Z" transform="translate(430.819 278.608)" fill="#f5f5f5"/>
      <path id="Tracé_4" data-name="Tracé 4" d="M293.58,418.582h45.038l23.7-192.92a12.812,12.812,0,0,0-12.985-14.782H333.856a17.314,17.314,0,0,0-16.6,14.782Z" transform="translate(553.589 278.606)" fill="#f0f0f0"/>
      <path id="Tracé_5" data-name="Tracé 5" d="M296.405,375.92l8.159-93.279a8.874,8.874,0,0,1,7.726-8.051l3.355-.433a11.882,11.882,0,0,0,10.367-10.821l1.493-17.011a11.925,11.925,0,0,0-11.882-12.986H390.9a11.925,11.925,0,0,1,11.882,12.986l-1.493,17.011a11.882,11.882,0,0,1-10.367,10.821l-3.355.433a8.9,8.9,0,0,0-7.726,8.051l-8.159,93.279a13.18,13.18,0,0,1-13.115,12.012H283.29a13.18,13.18,0,0,0,13.115-12.011Z" transform="translate(534.186 320.965)" fill="#e6e6e6"/>
      <path id="Tracé_6" data-name="Tracé 6" d="M234.5,259.333a28.352,28.352,0,0,0-28.243-25.971h65.533a28.352,28.352,0,0,1,28.135,25.971l6.493,73.93H240.972Z" transform="translate(388.93 321.007)" fill="#e6e6e6"/>
      <path id="Tracé_7" data-name="Tracé 7" d="M203.957,233.393h29.087a28.351,28.351,0,0,1,28.243,25.971l6.493,73.93H423.865l6.493-73.93a28.33,28.33,0,0,1,28.135-25.971H487.6a11.925,11.925,0,0,1,11.882,12.985l-1.493,17.011a11.882,11.882,0,0,1-10.367,10.821l-3.354.433a8.874,8.874,0,0,0-7.726,8.051l-8.073,93.127a13.18,13.18,0,0,1-13.115,12.012H236.291a13.18,13.18,0,0,1-13.115-12.011l-8.159-93.279a8.917,8.917,0,0,0-7.726-8.051l-3.355-.433a11.925,11.925,0,0,1-10.388-10.821l-1.472-17.011a11.925,11.925,0,0,1,11.882-12.834Z" transform="translate(362.121 321.064)" fill="#f0f0f0"/>
      <path id="Tracé_8" data-name="Tracé 8" d="M90.946,177.44s-2.4-15.821,9.133-25.971,10.518-16.167,7.207-16.946-6.32,9.35-11.384,12.141c0,0-.173-14.457,4.978-19.759s7.856-19.045,2.943-19.283-5.389,8.138-6.493,14.089-6.493,14.306-6.493,14.306-1.06-12.985-4.328-18.245,5.54-17.487,2.164-22.789-9.5,4.8-9,16.21,8.116,23.569,6.341,35.472c0,0-3.355-8.376-6.363-9.133s-6.06-6.276-8.073-8.332-4.567,5.043,0,11.622,16.21,24.218,14.435,38.459Z" transform="translate(130.152 57.336)" fill="#e6e6e6"/>
      <path id="Tracé_9" data-name="Tracé 9" d="M94.814,120.113l3.787,23.7a12.055,12.055,0,0,1-11.9,13.938H82.673a12.055,12.055,0,0,1-11.9-13.938l3.831-23.7Z" transform="translate(133.167 107.457)" fill="#e6e6e6"/>
      <rect id="Rectangle_52" data-name="Rectangle 52" width="11.752" height="50.535" transform="translate(466.35 260.574) rotate(180)" fill="#ebebeb"/>
      <rect id="Rectangle_53" data-name="Rectangle 53" width="11.752" height="50.535" transform="translate(409.517 260.574) rotate(180)" fill="#ebebeb"/>
      <rect id="Rectangle_54" data-name="Rectangle 54" width="11.752" height="50.535" transform="matrix(-0.985, -0.17, 0.17, -0.985, 336.248, 260.56)" fill="#ebebeb"/>
      <rect id="Rectangle_55" data-name="Rectangle 55" width="11.752" height="43.869" transform="translate(451.785 260.553) rotate(180)" fill="#ebebeb"/>
      <rect id="Rectangle_56" data-name="Rectangle 56" width="11.752" height="43.869" transform="translate(424.775 260.553) rotate(180)" fill="#ebebeb"/>
      <rect id="Rectangle_57" data-name="Rectangle 57" width="11.752" height="43.869" transform="translate(356.558 260.553) rotate(180)" fill="#ebebeb"/>
      <rect id="Rectangle_58" data-name="Rectangle 58" width="11.752" height="43.869" transform="translate(384.307 260.559) rotate(-167.47)" fill="#ebebeb"/>
      <rect id="Rectangle_59" data-name="Rectangle 59" width="5.887" height="53.045" transform="translate(435.748 260.574) rotate(180)" fill="#ebebeb"/>
      <rect id="Rectangle_60" data-name="Rectangle 60" width="5.887" height="53.045" transform="translate(365.821 260.574) rotate(180)" fill="#ebebeb"/>
      <rect id="Rectangle_61" data-name="Rectangle 61" width="57.287" height="39.541" transform="translate(260.747 220.449)" fill="#ebebeb"/>
      <rect id="Rectangle_62" data-name="Rectangle 62" width="47.981" height="29.52" transform="translate(466.523 236.638)" fill="#ebebeb"/>
      <rect id="Rectangle_63" data-name="Rectangle 63" width="24.001" height="29.52" transform="translate(479.292 210.689)" fill="#ebebeb"/>
      <rect id="Rectangle_64" data-name="Rectangle 64" width="57.071" height="237.806" transform="translate(847.169 171.624)" fill="#e0e0e0"/>
      <rect id="Rectangle_65" data-name="Rectangle 65" width="213.437" height="238.434" transform="translate(898.116 410.08) rotate(180)" fill="#e0e0e0"/>
      <rect id="Rectangle_66" data-name="Rectangle 66" width="221.445" height="238.434" transform="translate(899.241 410.08) rotate(180)" fill="#f0f0f0"/>
      <rect id="Rectangle_67" data-name="Rectangle 67" width="202.876" height="219.887" transform="translate(890.151 399.107) rotate(180)" fill="#fff"/>
      <rect id="Rectangle_68" data-name="Rectangle 68" width="3.766" height="219.887" transform="translate(691.02 399.107) rotate(180)" fill="#e0e0e0"/>
      <rect id="Rectangle_69" data-name="Rectangle 69" width="5.93" height="200.279" transform="translate(690.414 343.292) rotate(-90)" fill="#e0e0e0"/>
      <rect id="Rectangle_70" data-name="Rectangle 70" width="206.057" height="9.955" transform="translate(893.311 337.34) rotate(180)" fill="#f0f0f0"/>
    </g>
    <g id="freepik--Shadow--inject-12" transform="translate(121.435 798.56)">
      <ellipse id="freepik--path--inject-12" cx="419.624" cy="24.499" rx="419.624" ry="24.499" fill="#f5f5f5"/>
    </g>
    <g id="freepik--Tab--inject-12" transform="translate(293.73 252.956)">
      <rect id="Rectangle_71" data-name="Rectangle 71" width="418.888" height="487.603" rx="5.49" fill="#ba68c8"/>
      <rect id="Rectangle_72" data-name="Rectangle 72" width="418.888" height="487.603" rx="5.49" fill="#fff" opacity="0.6"/>
      <rect id="Rectangle_73" data-name="Rectangle 73" width="283.169" height="48.479" transform="translate(67.871 223.631)" fill="#fff"/>
      <g id="Groupe_2" data-name="Groupe 2" transform="translate(83.366 239.126)" opacity="0.4">
        <path id="Tracé_10" data-name="Tracé 10" d="M140.506,210.392v1.277H130.68V197.775H140.2v1.255h-8.051v4.956h7.185v1.234h-7.185v5.173Z" transform="translate(-130.68 -196.931)" fill="#263238"/>
        <path id="Tracé_11" data-name="Tracé 11" d="M134.768,200.513h5.216v1.212h-5.216Z" transform="translate(-122.972 -191.769)" fill="#263238"/>
        <path id="Tracé_12" data-name="Tracé 12" d="M154.89,203.426v6.06h-1.407v-5.93c0-2.164-1.1-3.333-2.987-3.333a3.355,3.355,0,0,0-3.484,3.766v5.5h-1.428v-5.93c0-2.164-1.1-3.333-3.008-3.333a3.355,3.355,0,0,0-3.484,3.766v5.5h-1.428V199.033h1.363v1.9a4.328,4.328,0,0,1,3.831-1.991,3.723,3.723,0,0,1,3.7,2.164,4.588,4.588,0,0,1,4.134-2.164,3.939,3.939,0,0,1,4.2,4.48Z" transform="translate(-117.513 -194.747)" fill="#263238"/>
        <path id="Tracé_13" data-name="Tracé 13" d="M153.425,203V209.5h-1.363V207.85a3.9,3.9,0,0,1-3.593,1.731c-2.359,0-3.809-1.234-3.809-3.03s1.039-2.965,4.025-2.965H152v-.628c0-1.8-1-2.77-2.943-2.77a5.368,5.368,0,0,0-3.484,1.234l-.628-1.039a6.493,6.493,0,0,1,4.329-1.428A3.722,3.722,0,0,1,153.425,203ZM152,206.357v-1.71h-3.268c-2.013,0-2.684.779-2.684,1.861s.974,1.969,2.64,1.969A3.311,3.311,0,0,0,152,206.357Z" transform="translate(-104.319 -194.757)" fill="#263238"/>
        <path id="Tracé_14" data-name="Tracé 14" d="M148.913,198.478a1.017,1.017,0,0,1,1.039-1,1,1,0,0,1,1.017.974,1.028,1.028,0,1,1-2.056.022Zm.325,3.29h1.407v10.453h-1.407Z" transform="translate(-96.3 -197.482)" fill="#263238"/>
        <path id="Tracé_15" data-name="Tracé 15" d="M150.87,197.483h1.407v14.738H150.87Z" transform="translate(-92.609 -197.482)" fill="#263238"/>
      </g>
      <rect id="Rectangle_74" data-name="Rectangle 74" width="283.169" height="48.479" transform="translate(67.871 289.856)" fill="#fff"/>
      <g id="Groupe_3" data-name="Groupe 3" transform="translate(83.366 305.547)" opacity="0.4">
        <path id="Tracé_16" data-name="Tracé 16" d="M141.544,225.537c0,2.965-2.164,4.761-5.67,4.761h-3.722v4.328H130.68V220.733h5.194C139.4,220.776,141.544,222.572,141.544,225.537Zm-1.472,0c0-2.164-1.45-3.484-4.328-3.484h-3.679V229h3.679C138.623,229,140.073,227.723,140.073,225.537Z" transform="translate(-130.68 -220.062)" fill="#263238"/>
        <path id="Tracé_17" data-name="Tracé 17" d="M143.87,226.027v6.493h-1.363v-1.645a3.9,3.9,0,0,1-3.593,1.731c-2.359,0-3.809-1.234-3.809-3.052s1.039-3.008,4.026-3.008h3.311V225.9c0-1.775-1.017-2.749-2.965-2.749a5.28,5.28,0,0,0-3.463,1.234l-.649-1.06a6.666,6.666,0,0,1,4.328-1.407,3.722,3.722,0,0,1,4.177,4.112Zm-1.407,3.333v-1.71h-3.333c-2.013,0-2.662.8-2.662,1.883s.952,1.948,2.64,1.948A3.333,3.333,0,0,0,142.463,229.36Z" transform="translate(-122.336 -217.89)" fill="#263238"/>
        <path id="Tracé_18" data-name="Tracé 18" d="M138.967,231.246l.628-1.1a6.492,6.492,0,0,0,3.722,1.169c1.969,0,2.792-.671,2.792-1.71,0-2.727-6.774-.584-6.774-4.7,0-1.71,1.472-2.987,4.134-2.987a7.271,7.271,0,0,1,3.7.974l-.628,1.125a5.367,5.367,0,0,0-3.073-.887c-1.883,0-2.727.736-2.727,1.731,0,2.814,6.774.693,6.774,4.7,0,1.818-1.58,2.987-4.328,2.987A6.926,6.926,0,0,1,138.967,231.246Z" transform="translate(-115.053 -217.827)" fill="#263238"/>
        <path id="Tracé_19" data-name="Tracé 19" d="M142.328,231.246l.649-1.1a6.277,6.277,0,0,0,3.7,1.169c1.991,0,2.792-.671,2.792-1.71,0-2.727-6.752-.584-6.752-4.7,0-1.71,1.472-2.987,4.112-2.987a7.164,7.164,0,0,1,3.7.974l-.606,1.125a5.475,5.475,0,0,0-3.095-.887c-1.883,0-2.705.736-2.705,1.731,0,2.814,6.774.693,6.774,4.7,0,1.818-1.6,2.987-4.328,2.987a7.033,7.033,0,0,1-4.242-1.3Z" transform="translate(-108.717 -217.828)" fill="#263238"/>
        <path id="Tracé_20" data-name="Tracé 20" d="M162.619,221.947l-3.939,10.432h-1.32l-3.2-8.549-3.29,8.549h-1.32L145.5,221.947h1.342l3.29,8.873,3.355-8.873H154.7l3.333,8.873,3.311-8.873Z" transform="translate(-102.735 -217.771)" fill="#263238"/>
        <path id="Tracé_21" data-name="Tracé 21" d="M151.7,227.234a5.324,5.324,0,1,1,5.324,5.324,5.151,5.151,0,0,1-5.324-5.324Zm9.2,0a3.9,3.9,0,1,0-3.874,4.069,3.809,3.809,0,0,0,3.874-4.069Z" transform="translate(-91.041 -217.841)" fill="#263238"/>
        <path id="Tracé_22" data-name="Tracé 22" d="M161.642,221.931v1.363H161.3a3.376,3.376,0,0,0-3.506,3.831v5.324h-1.407V222.017h1.342v2.034a3.96,3.96,0,0,1,3.917-2.121Z" transform="translate(-82.214 -217.84)" fill="#263238"/>
        <path id="Tracé_23" data-name="Tracé 23" d="M169.117,220.5v14.717h-1.342v-2.056a4.545,4.545,0,0,1-4.025,2.164,5.324,5.324,0,0,1,0-10.626,4.523,4.523,0,0,1,3.961,2.164V220.5Zm-1.385,9.5a3.9,3.9,0,1,0-3.874,4.069,3.809,3.809,0,0,0,3.874-4.177Z" transform="translate(-77.721 -220.5)" fill="#263238"/>
      </g>
      <rect id="Rectangle_75" data-name="Rectangle 75" width="283.169" height="48.479" transform="translate(67.871 387.788)" opacity="0.2"/>
      <g id="Groupe_4" data-name="Groupe 4" transform="translate(130.201 358.392)" opacity="0.5">
        <path id="Tracé_24" data-name="Tracé 24" d="M153.446,245.285h-4.631l-1,2.164h-.909l3.787-8.289h.866l3.787,8.289h-.909Zm-.325-.714-1.991-4.458-1.991,4.458Z" transform="translate(-146.91 -238.159)"/>
        <path id="Tracé_25" data-name="Tracé 25" d="M150.255,239h.844v8.787h-.844Z" transform="translate(-140.602 -238.456)"/>
        <path id="Tracé_26" data-name="Tracé 26" d="M154.56,239.886v.822h-.216A2.013,2.013,0,0,0,152.179,243v3.181h-.844v-6.233h.822v1.212A2.337,2.337,0,0,1,154.56,239.886Z" transform="translate(-138.566 -236.829)"/>
        <path id="Tracé_27" data-name="Tracé 27" d="M158.856,243.293h-5.3A2.294,2.294,0,0,0,156,245.457a2.511,2.511,0,0,0,1.926-.8l.454.541a3.29,3.29,0,0,1-5.67-2.164,3.008,3.008,0,0,1,3.052-3.16,2.965,2.965,0,0,1,3.03,3.16A1.079,1.079,0,0,1,158.856,243.293Zm-5.216-.628h4.328a2.164,2.164,0,0,0-4.328,0Z" transform="translate(-135.98 -236.816)"/>
        <path id="Tracé_28" data-name="Tracé 28" d="M160.314,242.354v3.852h-.736v-.974a2.294,2.294,0,0,1-2.164,1.039c-1.407,0-2.164-.736-2.164-1.818s.606-1.775,2.4-1.775h1.926v-.368c0-1.06-.606-1.645-1.775-1.645a3.2,3.2,0,0,0-2.164.736l-.368-.628a3.874,3.874,0,0,1,2.532-.844,2.164,2.164,0,0,1,2.51,2.424Zm-.822,1.991v-1.039h-1.97c-1.212,0-1.6.476-1.6,1.125s.584,1.169,1.58,1.169a2.034,2.034,0,0,0,2.078-1.363Z" transform="translate(-131.184 -236.765)"/>
        <path id="Tracé_29" data-name="Tracé 29" d="M163.751,239v8.787h-.8v-1.234a2.662,2.662,0,0,1-2.4,1.3,3.181,3.181,0,0,1,0-6.341,2.77,2.77,0,0,1,2.381,1.234V239Zm-.822,5.67a2.316,2.316,0,1,0-2.316,2.424,2.273,2.273,0,0,0,2.4-2.424Z" transform="translate(-126.699 -238.456)"/>
        <path id="Tracé_30" data-name="Tracé 30" d="M166.853,239.888l-3.117,6.99a2.282,2.282,0,0,1-3.679,1.039l.39-.628a1.623,1.623,0,0,0,1.147.476c.563,0,.931-.26,1.3-1.06l.26-.584-2.792-6.233h.974l2.359,5.3,2.337-5.3Z" transform="translate(-122.118 -236.787)"/>
        <path id="Tracé_31" data-name="Tracé 31" d="M168.884,242.354v3.852h-.8v-.974a2.294,2.294,0,0,1-2.164,1.039c-1.407,0-2.164-.736-2.164-1.818s.606-1.775,2.4-1.775h1.969v-.368c0-1.06-.584-1.645-1.753-1.645a3.2,3.2,0,0,0-2.164.736l-.389-.628a3.939,3.939,0,0,1,2.554-.844,2.164,2.164,0,0,1,2.51,2.424Zm-.844,1.991v-1.039h-1.948c-1.212,0-1.6.476-1.6,1.125s.584,1.169,1.58,1.169a1.991,1.991,0,0,0,1.969-1.363Z" transform="translate(-115.146 -236.765)"/>
        <path id="Tracé_32" data-name="Tracé 32" d="M177.817,242.615v3.614h-.822V242.7c0-1.32-.671-1.991-1.8-1.991a2.013,2.013,0,0,0-2.164,2.164v3.268h-.822V242.7c0-1.32-.671-1.991-1.818-1.991a2.013,2.013,0,0,0-2.164,2.164v3.268h-.844V239.91h.8v1.147a2.511,2.511,0,0,1,2.294-1.19,2.164,2.164,0,0,1,2.164,1.32,2.705,2.705,0,0,1,2.467-1.32,2.337,2.337,0,0,1,2.705,2.748Z" transform="translate(-108.301 -236.896)"/>
        <path id="Tracé_33" data-name="Tracé 33" d="M177.6,243.207h-5.216a2.337,2.337,0,0,0,2.467,2.164,2.445,2.445,0,0,0,1.9-.8l.476.541a3.138,3.138,0,0,1-2.4,1.017,3.073,3.073,0,0,1-3.268-3.182,3.03,3.03,0,0,1,6.06,0S177.6,243.121,177.6,243.207Zm-5.216-.628h4.437a2.218,2.218,0,0,0-4.437,0Z" transform="translate(-100.425 -236.73)"/>
        <path id="Tracé_34" data-name="Tracé 34" d="M184.642,242.615v3.614H183.8V242.7c0-1.32-.649-1.991-1.775-1.991a1.991,1.991,0,0,0-2.164,2.164v3.268h-.844V242.7c0-1.32-.649-1.991-1.8-1.991a1.991,1.991,0,0,0-2.164,2.164v3.268h-.844V239.91h.8v1.147a2.489,2.489,0,0,1,2.294-1.19,2.164,2.164,0,0,1,2.164,1.32,2.705,2.705,0,0,1,2.467-1.32,2.337,2.337,0,0,1,2.705,2.748Z" transform="translate(-95.432 -236.895)"/>
        <path id="Tracé_35" data-name="Tracé 35" d="M184.94,244.673a3.03,3.03,0,0,1-3.095,3.181,2.662,2.662,0,0,1-2.4-1.3v1.234h-.822V239h.844v3.744a2.749,2.749,0,0,1,2.381-1.234,3.008,3.008,0,0,1,3.095,3.16Zm-.844,0a2.316,2.316,0,1,0-2.316,2.424,2.272,2.272,0,0,0,2.316-2.424Z" transform="translate(-87.116 -238.456)"/>
        <path id="Tracé_36" data-name="Tracé 36" d="M187.241,243.349h-5.173a2.294,2.294,0,0,0,2.446,2.164,2.446,2.446,0,0,0,1.883-.887l.476.541A3.29,3.29,0,0,1,181.2,243a3.008,3.008,0,0,1,3.052-3.16,2.943,2.943,0,0,1,3.008,3.16Zm-5.216-.628h4.328a2.164,2.164,0,1,0-4.328,0Z" transform="translate(-82.253 -236.872)"/>
        <path id="Tracé_37" data-name="Tracé 37" d="M187.073,239.885v.822h-.195A2.013,2.013,0,0,0,184.714,243v3.181h-.844V239.95h.8v1.212A2.359,2.359,0,0,1,187.073,239.885Z" transform="translate(-77.216 -236.827)"/>
        <path id="Tracé_38" data-name="Tracé 38" d="M190.01,241.357c0-.866-.693-1.45-1.9-1.45a2.814,2.814,0,0,0-2.272.952l-.628-.476a3.679,3.679,0,0,1,2.965-1.234c1.667,0,2.727.8,2.727,2.164,0,2.013-2.164,2.164-2.164,3.809h-.887C187.845,243.088,190.01,242.893,190.01,241.357Zm-2.337,5.605a.628.628,0,1,1,.27.639A.628.628,0,0,1,187.672,246.962Z" transform="translate(-74.699 -238.191)"/>
        <path id="Tracé_39" data-name="Tracé 39" d="M188.9,239.175h1.926v6.709h4.155v1.558H188.9Z" transform="translate(-67.727 -238.13)"/>
        <path id="Tracé_40" data-name="Tracé 40" d="M191.164,243.378a3.506,3.506,0,1,1,3.506,3.29,3.29,3.29,0,0,1-3.506-3.29Zm5.129,0a1.623,1.623,0,1,0-1.623,1.753,1.6,1.6,0,0,0,1.623-1.753Z" transform="translate(-63.474 -237.225)"/>
        <path id="Tracé_41" data-name="Tracé 41" d="M201.063,239.9v5.324a3.116,3.116,0,0,1-3.571,3.463,5.281,5.281,0,0,1-3.138-.887l.736-1.32a3.83,3.83,0,0,0,2.164.714c1.3,0,1.883-.584,1.883-1.731v-.281a2.619,2.619,0,0,1-2.013.8,3.095,3.095,0,1,1,0-6.168,2.554,2.554,0,0,1,2.164.909V239.9Zm-1.818,3.008a1.537,1.537,0,0,0-1.666-1.58,1.58,1.58,0,1,0,0,3.138,1.537,1.537,0,0,0,1.667-1.558Z" transform="translate(-58.548 -236.95)"/>
        <path id="Tracé_42" data-name="Tracé 42" d="M198,239.858a1.06,1.06,0,0,1,1.147-1.039,1.039,1.039,0,0,1,1.147,1,1.147,1.147,0,0,1-2.294,0Zm.216,1.9h1.84v6.493h-1.84Z" transform="translate(-50.572 -238.813)"/>
        <path id="Tracé_43" data-name="Tracé 43" d="M205.812,242.662v3.658h-1.84v-3.354c0-1.039-.476-1.515-1.3-1.515a1.517,1.517,0,0,0-1.537,1.71v3.16H199.3v-6.493h1.775v.757a2.792,2.792,0,0,1,2.164-.844,2.489,2.489,0,0,1,2.575,2.922Z" transform="translate(-48.125 -237.073)"/>
      </g>
      <rect id="Rectangle_76" data-name="Rectangle 76" width="283.169" height="48.479" transform="translate(67.871 384.823)" fill="#ba68c8"/>
      <path id="Tracé_44" data-name="Tracé 44" d="M168.884,269.8l-3.463-5h-5.151v5.043H157.89v-16.6h6.493c4.328,0,6.9,2.164,6.9,5.8a5.238,5.238,0,0,1-3.636,5.238l3.939,5.562Zm0-10.821c0-2.381-1.58-3.722-4.632-3.722h-4.025v7.467h4.025c2.987.022,4.567-1.364,4.567-3.722Z" transform="translate(3.995 146.793)" fill="#fff"/>
      <path id="Tracé_45" data-name="Tracé 45" d="M175.806,261.767H165.612a4.329,4.329,0,0,0,4.545,3.679,4.719,4.719,0,0,0,3.636-1.515l1.255,1.472a6.861,6.861,0,0,1-11.73-4.329,6.168,6.168,0,0,1,6.32-6.493,6.06,6.06,0,0,1,6.211,6.493C175.849,261.269,175.827,261.55,175.806,261.767Zm-10.194-1.645h8.051a4.047,4.047,0,0,0-8.051,0Z" transform="translate(14.214 149.309)" fill="#fff"/>
      <path id="Tracé_46" data-name="Tracé 46" d="M181.306,254.7v10.821c0,4.437-2.272,6.493-6.493,6.493a9.306,9.306,0,0,1-5.995-1.861L169.9,268.4a7.726,7.726,0,0,0,4.848,1.623c2.965,0,4.328-1.363,4.328-4.22v-1a5.691,5.691,0,0,1-4.523,1.948,6.081,6.081,0,1,1,0-12.163,5.714,5.714,0,0,1,4.653,2.164v-1.948Zm-2.164,5.952a4.328,4.328,0,1,0-4.328,4.09,4.025,4.025,0,0,0,4.264-4.09Z" transform="translate(23.95 149.337)" fill="#fff"/>
      <path id="Tracé_47" data-name="Tracé 47" d="M174.285,254.265a1.515,1.515,0,0,1,1.537-1.493,1.479,1.479,0,1,1-1.537,1.493Zm.411,3.9h2.272v12.553H174.7Z" transform="translate(34.91 145.881)" fill="#fff"/>
      <path id="Tracé_48" data-name="Tracé 48" d="M176.168,265.951l.952-1.8a8.051,8.051,0,0,0,4.329,1.3c2.164,0,2.987-.649,2.987-1.71,0-2.813-7.943-.368-7.943-5.389,0-2.164,2.013-3.766,5.237-3.766a9.09,9.09,0,0,1,4.567,1.147l-.974,1.8a6.494,6.494,0,0,0-3.614-1c-1.991,0-2.965.736-2.965,1.731,0,2.965,7.964.541,7.964,5.432,0,2.164-2.164,3.723-5.432,3.723A9.132,9.132,0,0,1,176.168,265.951Z" transform="translate(38.46 149.324)" fill="#fff"/>
      <path id="Tracé_49" data-name="Tracé 49" d="M189.1,268.268a4.329,4.329,0,0,1-2.749.887,3.593,3.593,0,0,1-3.982-3.939v-6.9H180.2v-1.861h2.164V253.7h2.164v2.749h3.744v1.861h-3.614v6.817a1.84,1.84,0,0,0,1.97,2.164,2.9,2.9,0,0,0,1.775-.584Z" transform="translate(46.069 147.656)" fill="#fff"/>
      <path id="Tracé_50" data-name="Tracé 50" d="M196.119,261.767H185.991a4.328,4.328,0,0,0,4.567,3.679,4.653,4.653,0,0,0,3.614-1.515l1.255,1.472a6.839,6.839,0,0,1-11.709-4.328,6.168,6.168,0,0,1,6.32-6.493,6.082,6.082,0,0,1,6.211,6.493,3.938,3.938,0,0,1-.13.693Zm-10.129-1.645h8.073a4.069,4.069,0,0,0-8.073,0Z" transform="translate(52.682 149.309)" fill="#fff"/>
      <path id="Tracé_51" data-name="Tracé 51" d="M195.88,254.6v2.164h-.519A3.744,3.744,0,0,0,191.4,261.1v6.255h-2.272V254.8h2.164v2.164a4.761,4.761,0,0,1,4.588-2.359Z" transform="translate(62.898 149.309)" fill="#fff"/>
      <g id="Groupe_5" data-name="Groupe 5" transform="translate(159.872 36.077)" opacity="0.6">
        <path id="Tracé_52" data-name="Tracé 52" d="M157.193,143.815l.974-2.034a9.263,9.263,0,0,0,5.995,2.164c3.138,0,4.48-1.212,4.48-2.792,0-4.328-10.994-1.645-10.994-8.376,0-2.814,2.164-5.194,6.947-5.194a10.82,10.82,0,0,1,5.843,1.6l-.866,2.164a9.329,9.329,0,0,0-4.978-1.472c-3.095,0-4.328,1.3-4.328,2.878,0,4.328,11.016,1.645,11.016,8.332,0,2.77-2.164,5.151-7.034,5.151a10.821,10.821,0,0,1-7.055-2.424Z" transform="translate(-157.193 -126.24)" fill="#263238"/>
        <path id="Tracé_53" data-name="Tracé 53" d="M163.08,128.742a1.645,1.645,0,0,1,1.688-1.623,1.623,1.623,0,0,1,1.688,1.58,1.688,1.688,0,0,1-3.376,0Zm.433,4.328h2.511v13.765h-2.511Z" transform="translate(-146.091 -127.117)" fill="#263238"/>
        <path id="Tracé_54" data-name="Tracé 54" d="M179.715,129.221V141.1c0,4.87-2.467,7.077-7.12,7.077a10.259,10.259,0,0,1-6.493-2.056l1.19-1.926a8.332,8.332,0,0,0,5.3,1.8c3.246,0,4.718-1.515,4.718-4.631V140.28a6.276,6.276,0,0,1-4.956,2.164,6.666,6.666,0,1,1,0-13.31,6.3,6.3,0,0,1,5.086,2.164v-2.164Zm-2.424,6.493a4.74,4.74,0,1,0-4.74,4.5,4.458,4.458,0,0,0,4.848-4.48Z" transform="translate(-141.884 -123.333)" fill="#263238"/>
        <path id="Tracé_55" data-name="Tracé 55" d="M185,135.067v7.921h-2.511v-7.726c0-2.705-1.342-4.025-3.7-4.025a4.09,4.09,0,0,0-4.328,4.567v7.1h-2.489V129.137h2.4V131.3a5.843,5.843,0,0,1,4.956-2.164,5.346,5.346,0,0,1,5.67,5.93Z" transform="translate(-129.332 -123.335)" fill="#263238"/>
        <path id="Tracé_56" data-name="Tracé 56" d="M193.444,129.257v13.765h-2.359v-2.164a5.605,5.605,0,0,1-4.675,2.164,5.411,5.411,0,0,1-5.93-5.995V129.1h2.489v7.64c0,2.684,1.363,4.047,3.722,4.047a4.069,4.069,0,0,0,4.328-4.567V129.1Z" transform="translate(-113.346 -123.368)" fill="#263238"/>
        <path id="Tracé_57" data-name="Tracé 57" d="M200.841,136.1a6.687,6.687,0,0,1-6.947,7.034,5.908,5.908,0,0,1-4.8-2.164v7.1H186.6V129.283h2.381v2.164a5.865,5.865,0,0,1,4.913-2.316,6.666,6.666,0,0,1,6.947,6.969Zm-2.51,0a4.631,4.631,0,1,0-4.653,4.848,4.566,4.566,0,0,0,4.653-4.848Z" transform="translate(-101.74 -123.33)" fill="#263238"/>
      </g>
      <rect id="Rectangle_77" data-name="Rectangle 77" width="283.169" height="48.479" transform="translate(67.871 157.383)" fill="#fff"/>
      <g id="Groupe_6" data-name="Groupe 6" transform="translate(83.366 173.723)" opacity="0.4">
        <path id="Tracé_58" data-name="Tracé 58" d="M130.68,174.818h1.472v12.617h7.77v1.277H130.68Z" transform="translate(-130.68 -174.818)" fill="#263238"/>
        <path id="Tracé_59" data-name="Tracé 59" d="M143.083,180.038v6.493h-1.342v-1.623a3.982,3.982,0,0,1-3.593,1.731c-2.359,0-3.809-1.234-3.809-3.052s1.017-2.943,4.025-2.943h3.311v-.628c0-1.8-1.017-2.77-2.965-2.77a5.28,5.28,0,0,0-3.463,1.234l-.649-1.06a6.73,6.73,0,0,1,4.328-1.407,3.723,3.723,0,0,1,4.155,4.025Zm-1.407,3.333v-1.71h-3.268c-2.034,0-2.684.8-2.684,1.883s.974,1.948,2.64,1.948a3.333,3.333,0,0,0,3.311-2.121Z" transform="translate(-123.778 -172.615)" fill="#263238"/>
        <path id="Tracé_60" data-name="Tracé 60" d="M138.2,185.346l.628-1.1a6.492,6.492,0,0,0,3.722,1.169c1.991,0,2.792-.671,2.792-1.71,0-2.727-6.752-.584-6.752-4.7,0-1.71,1.45-2.987,4.112-2.987a7.163,7.163,0,0,1,3.7.974l-.628,1.125a5.367,5.367,0,0,0-3.073-.887c-1.883,0-2.705.736-2.705,1.731,0,2.814,6.752.693,6.752,4.7,0,1.818-1.58,2.987-4.328,2.987A7.013,7.013,0,0,1,138.2,185.346Z" transform="translate(-116.509 -172.555)" fill="#263238"/>
        <path id="Tracé_61" data-name="Tracé 61" d="M148.639,187.321a3.4,3.4,0,0,1-2.164.736A2.77,2.77,0,0,1,143.423,185v-6.3H141.54v-1.19h1.883v-2.294h1.407v2.294h3.16v1.19h-3.16v6.233a1.667,1.667,0,0,0,1.8,1.9,2.316,2.316,0,0,0,1.558-.541Z" transform="translate(-110.202 -174.054)" fill="#263238"/>
        <path id="Tracé_62" data-name="Tracé 62" d="M158.33,174.818v13.894h-1.212L148.2,177.436v11.276H146.73V174.818h1.212l8.938,11.276V174.818Z" transform="translate(-100.415 -174.818)" fill="#263238"/>
        <path id="Tracé_63" data-name="Tracé 63" d="M160.722,180.036v6.493h-1.385v-1.623a3.939,3.939,0,0,1-3.593,1.731c-2.359,0-3.809-1.234-3.809-3.052s1.039-2.943,4.047-2.943h3.355v-.628c0-1.8-1.017-2.77-2.965-2.77a5.28,5.28,0,0,0-3.463,1.234l-.649-1.06a6.666,6.666,0,0,1,4.328-1.407,3.722,3.722,0,0,1,4.134,4.025Zm-1.407,3.333v-1.71h-3.29c-2.013,0-2.662.8-2.662,1.883s.974,1.948,2.64,1.948a3.333,3.333,0,0,0,3.333-2.121Z" transform="translate(-90.6 -172.613)" fill="#263238"/>
        <path id="Tracé_64" data-name="Tracé 64" d="M173.535,180.458v6.06h-1.407V180.61c0-2.164-1.125-3.333-3.008-3.333a3.355,3.355,0,0,0-3.484,3.766v5.476h-1.407V180.61c0-2.164-1.125-3.333-3.03-3.333a3.355,3.355,0,0,0-3.484,3.766v5.475h-1.407V176.086h1.277v1.9A4.329,4.329,0,0,1,161.415,176a3.766,3.766,0,0,1,3.722,2.164A4.545,4.545,0,0,1,169.25,176a3.939,3.939,0,0,1,4.285,4.458Z" transform="translate(-82.355 -172.624)" fill="#263238"/>
        <path id="Tracé_65" data-name="Tracé 65" d="M173.351,181.723h-8.657a3.874,3.874,0,0,0,4.112,3.636,4.134,4.134,0,0,0,3.2-1.364l.779.909a5.519,5.519,0,0,1-9.5-3.614,5.043,5.043,0,0,1,5.108-5.3,4.978,4.978,0,0,1,5.064,5.3A.761.761,0,0,0,173.351,181.723Zm-8.657-1.039h7.4a3.7,3.7,0,1,0-7.4,0Z" transform="translate(-69.207 -172.612)" fill="#263238"/>
      </g>
      <rect id="Rectangle_78" data-name="Rectangle 78" width="283.169" height="48.479" transform="translate(67.871 91.158)" fill="#fff"/>
      <g id="Groupe_7" data-name="Groupe 7" transform="translate(83.366 106.589)" opacity="0.4">
        <path id="Tracé_66" data-name="Tracé 66" d="M132.152,153.144V158.6h7.185v1.277h-7.185v5.887H130.68V151.868H140.2v1.277Z" transform="translate(-130.68 -150.959)" fill="#263238"/>
        <path id="Tracé_67" data-name="Tracé 67" d="M134.753,152.613a1.039,1.039,0,1,1,1.017,1.017A1.017,1.017,0,0,1,134.753,152.613Zm.3,3.311h1.407v10.432h-1.407Z" transform="translate(-123.001 -151.553)" fill="#263238"/>
        <path id="Tracé_68" data-name="Tracé 68" d="M141.969,153.053v1.363h-.346a3.376,3.376,0,0,0-3.506,3.852v5.324H136.71V153.161h1.342v1.948a3.96,3.96,0,0,1,3.917-2.056Z" transform="translate(-119.31 -148.768)" fill="#263238"/>
        <path id="Tracé_69" data-name="Tracé 69" d="M138.938,162.366l.628-1.125a6.255,6.255,0,0,0,3.723,1.19c1.991,0,2.792-.693,2.792-1.71,0-2.727-6.752-.584-6.752-4.718,0-1.688,1.45-2.965,4.112-2.965a6.948,6.948,0,0,1,3.7.974l-.628,1.125a5.368,5.368,0,0,0-3.073-.887c-1.883,0-2.705.736-2.705,1.731,0,2.814,6.752.693,6.752,4.7,0,1.8-1.58,2.965-4.328,2.965a7.012,7.012,0,0,1-4.22-1.277Z" transform="translate(-115.109 -148.754)" fill="#263238"/>
        <path id="Tracé_70" data-name="Tracé 70" d="M149.389,164.413a3.506,3.506,0,0,1-2.164.714,2.749,2.749,0,0,1-3.052-3.03v-6.3H142.29v-1.19h1.883V152.25h1.407v2.294h3.16v1.19h-3.16v6.211a1.688,1.688,0,0,0,1.8,1.926,2.424,2.424,0,0,0,1.558-.541Z" transform="translate(-108.788 -150.237)" fill="#263238"/>
        <path id="Tracé_71" data-name="Tracé 71" d="M159.08,151.868v13.894h-1.212l-8.917-11.276v11.276H147.48V151.868h1.212l8.938,11.276V151.868Z" transform="translate(-99.001 -150.959)" fill="#263238"/>
        <path id="Tracé_72" data-name="Tracé 72" d="M161.45,157.087v6.493h-1.363v-1.623a3.9,3.9,0,0,1-3.571,1.71c-2.381,0-3.831-1.212-3.831-3.03s1.039-2.943,4.047-2.943h3.355v-.649c0-1.775-1.017-2.749-2.965-2.749a5.281,5.281,0,0,0-3.463,1.234l-.649-1.06a6.687,6.687,0,0,1,4.329-1.407,3.7,3.7,0,0,1,4.112,4.025Zm-1.407,3.333v-1.71h-3.29c-2.013,0-2.662.8-2.662,1.861s.974,1.969,2.64,1.969a3.355,3.355,0,0,0,3.355-2.121Z" transform="translate(-89.186 -148.755)" fill="#263238"/>
        <path id="Tracé_73" data-name="Tracé 73" d="M174.277,157.464v6.06h-1.407v-5.908c0-2.164-1.125-3.333-3.008-3.333a3.355,3.355,0,0,0-3.484,3.766v5.475h-1.407v-5.908c0-2.164-1.125-3.333-3.03-3.333a3.355,3.355,0,0,0-3.484,3.766v5.475H157.05V153.092h1.3v1.969a4.328,4.328,0,0,1,3.831-1.991,3.766,3.766,0,0,1,3.723,2.164,4.5,4.5,0,0,1,4.112-2.164,3.939,3.939,0,0,1,4.264,4.393Z" transform="translate(-80.955 -148.72)" fill="#263238"/>
        <path id="Tracé_74" data-name="Tracé 74" d="M174.093,158.773h-8.657a3.874,3.874,0,0,0,4.112,3.636,4.09,4.09,0,0,0,3.2-1.385l.779.931a5.519,5.519,0,0,1-9.5-3.614,5.043,5.043,0,0,1,5.108-5.3,4.978,4.978,0,0,1,5.064,5.3A.681.681,0,0,0,174.093,158.773Zm-8.657-1.06h7.4a3.7,3.7,0,1,0-7.4,0Z" transform="translate(-67.807 -148.753)" fill="#263238"/>
      </g>
    </g>
    <g id="freepik--Plant--inject-12" transform="translate(189.695 612.151)">
      <path id="Tracé_75" data-name="Tracé 75" d="M89.731,349.169H87.675c0-3.052,2.532-74.558,14.977-86.57,12.791-12.444,27.832-.173,27.962,0l-1.3,1.558c-.563-.455-13.786-11.189-25.257,0C92.22,275.433,89.753,348.433,89.731,349.169Z" transform="translate(-24.37 -205.266)" fill="#ba68c8"/>
      <path id="Tracé_76" data-name="Tracé 76" d="M104.447,375.039l-2.034-.195c0-.866,8.051-86.829-23.092-122.582l1.537-1.342C112.584,287.344,104.533,374.173,104.447,375.039Z" transform="translate(-40.125 -216.787)" fill="#ba68c8"/>
      <path id="Tracé_77" data-name="Tracé 77" d="M88.929,370.233c-.26-4.069-6.255-99.555,17.682-121.63L108,250.117C84.774,271.457,90.9,369.151,90.964,370.081Z" transform="translate(-23.612 -221.157)" fill="#ba68c8"/>
      <path id="Tracé_78" data-name="Tracé 78" d="M116.725,341.988c0-.649-.736-64.927-17.768-74.6a10.821,10.821,0,0,0-9.912-1.039c-9.977,4.134-15.28,23.179-15.344,23.374l-1.969-.541c.216-.822,5.627-20.192,16.535-24.716a12.747,12.747,0,0,1,11.709,1.147C118,275.936,118.759,339.2,118.781,341.967Z" transform="translate(-54.437 -192.978)" fill="#ba68c8"/>
      <path id="Tracé_79" data-name="Tracé 79" d="M89.936,340.094c-.13-2.164-2.749-50.73,11.038-68.758,3.679-4.783,7.748-7.055,12.163-6.731,9.8.671,17.314,13.959,17.725,14.522l-1.775,1.017c0-.13-7.4-12.985-16.1-13.5-3.658-.281-7.164,1.731-10.388,5.952-13.332,17.314-10.648,66.9-10.626,67.394Z" transform="translate(-20.636 -191.039)" fill="#ba68c8"/>
      <path id="Tracé_80" data-name="Tracé 80" d="M93.806,383.15,91.772,383c0-1.169,8.657-117.129-5.627-136.477l1.645-1.212C102.55,265.264,94.174,378.346,93.806,383.15Z" transform="translate(-27.255 -227.366)" fill="#ba68c8"/>
      <path id="Tracé_81" data-name="Tracé 81" d="M95.6,272.526s8.83,3.268,6.211,10.951-30.581,20.344-30.581,20.344-11.709-10.713-.952-28.135S95.366,267.029,95.6,272.526Z" transform="translate(-65.737 -189.503)" fill="#ba68c8"/>
      <path id="Tracé_82" data-name="Tracé 82" d="M95.6,272.526s8.83,3.268,6.211,10.951-30.581,20.344-30.581,20.344-11.709-10.713-.952-28.135S95.366,267.029,95.6,272.526Z" transform="translate(-65.737 -189.503)" opacity="0.2"/>
      <path id="Tracé_83" data-name="Tracé 83" d="M95.912,265.111s-9.414-.39-9.956,7.7S106.3,303.375,106.3,303.375s14.933-5.411,11.73-25.646S98.25,260.112,95.912,265.111Z" transform="translate(-27.63 -196.718)" fill="#ba68c8"/>
      <path id="Tracé_84" data-name="Tracé 84" d="M95.912,265.111s-9.414-.39-9.956,7.7S106.3,303.375,106.3,303.375s14.933-5.411,11.73-25.646S98.25,260.112,95.912,265.111Z" transform="translate(-27.63 -196.718)" opacity="0.2"/>
      <path id="Tracé_85" data-name="Tracé 85" d="M95.954,256.536s-6.276-.671-5.779-4.48,24.391-13.656,38.48,2.164c0,0-9.025,15.5-22.054,15.712S95.954,256.536,95.954,256.536Z" transform="translate(-19.708 -226.97)" fill="#ba68c8"/>
      <path id="Tracé_86" data-name="Tracé 86" d="M95.954,256.536s-6.276-.671-5.779-4.48,24.391-13.656,38.48,2.164c0,0-9.025,15.5-22.054,15.712S95.954,256.536,95.954,256.536Z" transform="translate(-19.708 -226.97)" opacity="0.2"/>
      <path id="Tracé_87" data-name="Tracé 87" d="M105.48,259.373s5.67,2.749,7.272-.757S99.268,234.138,78.9,240.177c0,0-.541,17.92,10.41,25S105.48,259.373,105.48,259.373Z" transform="translate(-40.92 -239.091)" fill="#ba68c8"/>
      <path id="Tracé_88" data-name="Tracé 88" d="M105.48,259.373s5.67,2.749,7.272-.757S99.268,234.138,78.9,240.177c0,0-.541,17.92,10.41,25S105.48,259.373,105.48,259.373Z" transform="translate(-40.92 -239.091)" opacity="0.2"/>
      <path id="Tracé_89" data-name="Tracé 89" d="M100.31,270.6s-4.328-3.506.346-5.216,27.594-1.212,27.832,21.491c0,0-26.707,4.437-30-4.22S100.31,270.6,100.31,270.6Z" transform="translate(-6.056 -190.649)" fill="#ba68c8"/>
      <path id="Tracé_90" data-name="Tracé 90" d="M100.31,270.6s-4.328-3.506.346-5.216,27.594-1.212,27.832,21.491c0,0-26.707,4.437-30-4.22S100.31,270.6,100.31,270.6Z" transform="translate(-6.056 -190.649)" opacity="0.2"/>
      <path id="Tracé_91" data-name="Tracé 91" d="M97.913,252.926s4.328-3.506-.346-5.194S69.973,246.5,69.735,269.2c0,0,26.707,4.458,30-4.2S97.913,252.926,97.913,252.926Z" transform="translate(-58.199 -223.922)" fill="#ba68c8"/>
      <path id="Tracé_92" data-name="Tracé 92" d="M97.913,252.926s4.328-3.506-.346-5.194S69.973,246.5,69.735,269.2c0,0,26.707,4.458,30-4.2S97.913,252.926,97.913,252.926Z" transform="translate(-58.199 -223.922)" opacity="0.2"/>
      <path id="Tracé_93" data-name="Tracé 93" d="M91.956,257.436s.39-4.328-3.052-2.575-15.366,14.565-2.987,26.793c0,0,16.686-12.358,13.678-18.786S91.956,257.436,91.956,257.436Z" transform="translate(-38.044 -210.144)" fill="#ba68c8"/>
      <path id="Tracé_94" data-name="Tracé 94" d="M91.956,257.436s.39-4.328-3.052-2.575-15.366,14.565-2.987,26.793c0,0,16.686-12.358,13.678-18.786S91.956,257.436,91.956,257.436Z" transform="translate(-38.044 -210.144)" opacity="0.2"/>
      <path id="Tracé_95" data-name="Tracé 95" d="M102.2,260.086s-2.6-3.4,1.212-3.809,20.777,4.112,16.816,21.08c0,0-20.69-1.558-21.642-8.657S102.2,260.086,102.2,260.086Z" transform="translate(-4.048 -206.734)" fill="#ba68c8"/>
      <path id="Tracé_96" data-name="Tracé 96" d="M102.2,260.086s-2.6-3.4,1.212-3.809,20.777,4.112,16.816,21.08c0,0-20.69-1.558-21.642-8.657S102.2,260.086,102.2,260.086Z" transform="translate(-4.048 -206.734)" opacity="0.2"/>
      <path id="Tracé_97" data-name="Tracé 97" d="M82.433,355.052h66.9L158.224,290H73.538Z" transform="translate(-51.029 -143.105)" fill="#263238"/>
      <path id="Tracé_98" data-name="Tracé 98" d="M82.433,355.052h66.9L158.224,290H73.538Z" transform="translate(-51.029 -143.105)" fill="#fff" opacity="0.2"/>
      <path id="Tracé_99" data-name="Tracé 99" d="M172.646,288.165v6.19a7.488,7.488,0,0,1-7.488,7.488H77.831a7.488,7.488,0,0,1-7.488-7.488v-6.19Z" transform="translate(-57.053 -146.556)" fill="#263238"/>
    </g>
    <g id="freepik--speech-bubble--inject-12" transform="translate(781.398 137.147)">
      <path id="Tracé_100" data-name="Tracé 100" d="M352.1,74.483H289.919a19.132,19.132,0,0,0-19.132,19.132v54.106a19.132,19.132,0,0,0,19.132,19.154h18.158l-4.328,17.076,17.314-17.076h31.143a19.153,19.153,0,0,0,19.153-19.154V93.615A19.132,19.132,0,0,0,352.1,74.483Z" transform="translate(-270.788 -74.482)" fill="#ba68c8"/>
      <path id="Tracé_101" data-name="Tracé 101" d="M352.1,74.483H289.919a19.132,19.132,0,0,0-19.132,19.132v54.106a19.132,19.132,0,0,0,19.132,19.154h18.158l-4.328,17.076,17.314-17.076h31.143a19.153,19.153,0,0,0,19.153-19.154V93.615A19.132,19.132,0,0,0,352.1,74.483Z" transform="translate(-270.788 -74.482)" fill="#fff" opacity="0.7"/>
      <circle id="Ellipse_1" data-name="Ellipse 1" cx="24.131" cy="24.131" r="24.131" transform="translate(26.101 21.838)" fill="#fff"/>
      <path id="Tracé_102" data-name="Tracé 102" d="M308.362,79.718a30.84,30.84,0,1,0,21.829,9.033,30.862,30.862,0,0,0-21.829-9.033Zm17.509,21.642-18.591,21.9a2.77,2.77,0,0,1-2.164,1,2.813,2.813,0,0,1-2.164-1L290.853,109a2.835,2.835,0,1,1,4.328-3.658l9.934,11.709L321.542,97.7a2.835,2.835,0,0,1,4.328,3.658Z" transform="translate(-258.13 -64.611)" fill="#ba68c8"/>
    </g>
    <g id="freepik--Character--inject-12" transform="translate(630.919 241.65)">
      <path id="Tracé_103" data-name="Tracé 103" d="M362.507,265.775s-37.679-4.761-94.772,10.821c0,0-9.176-102.022-8.094-116.046s88.149-9.912,88.149-9.912,2.164,40.839,7.835,65.468S365.45,261.035,362.507,265.775Z" transform="translate(-141.495 -36.443)" fill="#ba68c8"/>
      <path id="Tracé_104" data-name="Tracé 104" d="M362.507,265.775s-37.679-4.761-94.772,10.821c0,0-9.176-102.022-8.094-116.046s88.149-9.912,88.149-9.912,2.164,40.839,7.835,65.468S365.45,261.035,362.507,265.775Z" transform="translate(-141.495 -36.443)" opacity="0.2"/>
      <path id="Tracé_105" data-name="Tracé 105" d="M252.848,331.2l15.366,4.35,3.658-23.915,1.969-12.791-15.366-4.35-2.619,17.141Z" transform="translate(-154.137 235.882)" fill="#e4897b"/>
      <path id="Tracé_106" data-name="Tracé 106" d="M283.463,331.918l15.842,2.1.152-22.919.108-14.241L283.7,294.78l-.108,16.318Z" transform="translate(-96.407 236.419)" fill="#e4897b"/>
      <path id="Tracé_107" data-name="Tracé 107" d="M283.616,294.78l-.108,16.318h15.864l.108-14.241Z" transform="translate(-96.322 236.419)" opacity="0.2"/>
      <path id="Tracé_108" data-name="Tracé 108" d="M253.89,311.636h16.015l1.969-12.791-15.366-4.35Z" transform="translate(-152.171 235.882)" opacity="0.2"/>
      <path id="Tracé_109" data-name="Tracé 109" d="M239.178,159.549l-15.258-4.5,2.792,17.422s13.851,3.181,15.15-4.025Z" transform="translate(-208.684 -27.068)" fill="#e4897b"/>
      <path id="Tracé_110" data-name="Tracé 110" d="M218.64,159.095l7.488,14.154,10.54-.779-2.792-17.422Z" transform="translate(-218.64 -27.068)" fill="#e4897b"/>
      <path id="Tracé_111" data-name="Tracé 111" d="M254.367,161.815,229.3,156.21l-2.272,12.163,22.746,5.54Z" transform="translate(-202.815 -24.875)" fill="#e4897b"/>
      <path id="Tracé_112" data-name="Tracé 112" d="M324.509,172.134l-1.472,1.753c-3.16,3.7-10.821,12.639-18.807,20.344-6.493,6.276-12.985,11.752-17.314,12.856-12.271,3.16-56.876-9.977-56.876-9.977l4.61-18.093s41.553,5.519,44.778,5.519c2.446,0,27.724-36.619,33.849-39.627Z" transform="translate(-197.144 -46.188)" fill="#ba68c8"/>
      <path id="Tracé_113" data-name="Tracé 113" d="M274.557,163.605c-3.16,3.7-10.821,12.639-18.807,20.344,1.6-12.682,6.255-24.326,12.38-31.684a11.424,11.424,0,0,1,1.948-1.9Z" transform="translate(-148.663 -35.906)" opacity="0.2"/>
      <path id="Tracé_114" data-name="Tracé 114" d="M276.441,306.68l17.444-.455a1.385,1.385,0,0,1,1.385,1.039l3.679,14.046a2.316,2.316,0,0,1-2.164,2.9c-6.3,0-15.409,0-23.309.152-9.263.26-15.15-.195-25.971,0-6.493.173-8.657-6.363-5.887-7.034,12.4-3.073,20.517-2.467,31.078-9.393A7.552,7.552,0,0,1,276.441,306.68Z" transform="translate(-177.535 258)" fill="#263238"/>
      <path id="Tracé_115" data-name="Tracé 115" d="M258.729,309.294h0c-2.554.563-7.1,1.32-8.917-.173a2.164,2.164,0,0,1-.779-1.818,1.169,1.169,0,0,1,.584-1.017c1.926-1.147,8.44,1.948,9.2,2.294a.411.411,0,0,1,.216.368A.368.368,0,0,1,258.729,309.294Zm-8.657-2.4h-.13a.476.476,0,0,0-.238.411,1.406,1.406,0,0,0,.5,1.19c1.017.844,3.658.931,7.164.238-2.532-1.06-6.06-2.294-7.25-1.839Z" transform="translate(-161.338 257.637)" fill="#ba68c8"/>
      <path id="Tracé_116" data-name="Tracé 116" d="M256.285,311.789h-.26c-1.969-.822-5.908-4.155-5.692-5.952,0-.433.346-.974,1.385-1.1a2.922,2.922,0,0,1,2.164.584c2.164,1.623,2.662,5.887,2.705,6.06a.39.39,0,0,1-.151.346Zm-4.848-6.211c-.325.108-.346.281-.346.346-.13,1.082,2.554,3.722,4.567,4.848a8.657,8.657,0,0,0-2.294-4.848,1.948,1.948,0,0,0-1.558-.433,1.319,1.319,0,0,0-.368.087Z" transform="translate(-158.894 255.142)" fill="#ba68c8"/>
      <path id="Tracé_117" data-name="Tracé 117" d="M307.22,306.68l17.444-.455a1.407,1.407,0,0,1,1.407,1.039l3.658,14.046a2.294,2.294,0,0,1-2.164,2.9c-6.3,0-15.409,0-23.331.152-9.241.26-15.15-.195-25.971,0-6.493.173-8.657-6.363-5.887-7.034,12.4-3.073,20.5-2.467,31.057-9.393A7.552,7.552,0,0,1,307.22,306.68Z" transform="translate(-119.538 258)" fill="#263238"/>
      <path id="Tracé_118" data-name="Tracé 118" d="M289.5,309.294h0c-2.554.563-7.12,1.32-8.917-.173a2.164,2.164,0,0,1-.779-1.818,1.169,1.169,0,0,1,.584-1.017c1.9-1.147,8.44,1.948,9.176,2.294a.346.346,0,0,1,.216.368A.39.39,0,0,1,289.5,309.294Zm-8.657-2.4h-.13a.433.433,0,0,0-.216.411,1.364,1.364,0,0,0,.5,1.19c1.017.844,3.636.931,7.164.238-2.575-1.06-6.1-2.294-7.294-1.839Z" transform="translate(-103.312 257.637)" fill="#ba68c8"/>
      <path id="Tracé_119" data-name="Tracé 119" d="M287.058,311.79h-.281c-1.948-.822-5.908-4.155-5.67-5.952,0-.433.325-.974,1.364-1.1a2.879,2.879,0,0,1,2.164.584,10.821,10.821,0,0,1,2.705,6.06.346.346,0,0,1-.152.346Zm-4.87-6.211c-.3.108-.325.281-.325.346-.151,1.082,2.554,3.722,4.566,4.848a8.9,8.9,0,0,0-2.294-4.848,1.969,1.969,0,0,0-1.558-.433Z" transform="translate(-100.869 255.14)" fill="#ba68c8"/>
      <path id="Tracé_120" data-name="Tracé 120" d="M372.769,186.945c8.4,36.381-6.017,322.6-6.017,322.6H338.92l-11.9-238.521L283.191,509.546l-29.758-2.164c19.478-184.783,36.641-295.094,36.641-295.094V198.351Z" transform="translate(-153.033 33.08)" fill="#263238"/>
      <path id="Tracé_121" data-name="Tracé 121" d="M253.432,507.382l29.758,2.164,34.5-187.769,9.328-50.751,11.9,238.521h27.832s14.414-286.221,6.017-322.6L290.03,198.351v13.938S272.889,322.6,253.432,507.382Z" transform="translate(-153.033 33.08)" fill="#fff" opacity="0.4"/>
      <path id="Tracé_122" data-name="Tracé 122" d="M347.516,140.468a351.365,351.365,0,0,0,1.32,52.158c1.169,12.12,2.77,23.569,4.48,33.892,4,24.218,8.549,42.376,9.2,48.717L279.775,286.64c-30.17-84.405-18.807-133.447-18.807-133.447a161.957,161.957,0,0,1,18.98-6.493c1.363-.368,2.749-.714,4.177-1.039a309.9,309.9,0,0,1,35.169-4.848c2.164-.195,4.523-.346,6.731-.454A210.049,210.049,0,0,1,347.516,140.468Z" transform="translate(-142.779 -55.188)" fill="#263238"/>
      <path id="Tracé_123" data-name="Tracé 123" d="M285.126,127.087c.606,11.579,1.84,33.308,11.471,38.826,0,0-5.995,11.406-18.959,12.574-9.8.866-9.155-8.808-9.155-8.808,5.67-4.22,4.328-11.384,0-19.478Z" transform="translate(-124.67 -79.79)" fill="#e4897b"/>
      <path id="Tracé_124" data-name="Tracé 124" d="M278.282,130.358,268.5,144.036a37.657,37.657,0,0,1,2.6,5.843c4.545-1.818,9.761-8.657,9-13.613a16.88,16.88,0,0,0-1.818-5.908Z" transform="translate(-124.621 -73.624)" opacity="0.2"/>
      <path id="Tracé_125" data-name="Tracé 125" d="M260.142,120.877c-1.883,6.017-.844,18.353,7.532,14.349S263.389,110.554,260.142,120.877Z" transform="translate(-141.888 -96.889)" fill="#263238"/>
      <path id="Tracé_126" data-name="Tracé 126" d="M302.976,135.08c.931,15.431,2.164,24.413-4.567,33.156-10.237,13.137-30.061,8.246-35.6-6.644-4.978-13.418-5.649-36.4,8.657-44.194a21.339,21.339,0,0,1,31.511,17.682Z" transform="translate(-141.437 -102.954)" fill="#e4897b"/>
      <path id="Tracé_127" data-name="Tracé 127" d="M270.87,130.279V112.965s18.353-1.363,17.53,8.029c10.172,5.043,5.367,20.863-8.289,28.611-7.488-5.995-6.622-20.409-6.622-20.409A22.072,22.072,0,0,1,270.87,130.279Z" transform="translate(-120.152 -106.55)" fill="#263238"/>
      <path id="Tracé_128" data-name="Tracé 128" d="M286.616,131.426a14.393,14.393,0,0,1-6.168,9.328c-4.328,2.835-8.073-.649-8.224-5.519-.13-4.328,1.926-11.167,6.9-12.033a6.666,6.666,0,0,1,7.488,8.224Z" transform="translate(-117.611 -87.267)" fill="#e4897b"/>
      <path id="Tracé_129" data-name="Tracé 129" d="M268.677,125.633c.152,1.255-.39,2.337-1.212,2.424s-1.6-.844-1.753-2.164.39-2.337,1.19-2.424S268.525,124.291,268.677,125.633Z" transform="translate(-129.927 -86.625)" fill="#263238"/>
      <path id="Tracé_130" data-name="Tracé 130" d="M263.772,126.18c.151,1.255-.39,2.337-1.212,2.424s-1.6-.844-1.753-2.164.39-2.337,1.212-2.424S263.577,124.925,263.772,126.18Z" transform="translate(-139.176 -85.592)" fill="#263238"/>
      <path id="Tracé_131" data-name="Tracé 131" d="M266.554,124.8a43.566,43.566,0,0,1-4.826,10.994,7.445,7.445,0,0,0,6.081.325Z" transform="translate(-137.392 -84.104)" fill="#de5753"/>
      <path id="Tracé_132" data-name="Tracé 132" d="M267.664,133.65a12.688,12.688,0,0,1-1.623.3.368.368,0,1,1,0-.736,9.956,9.956,0,0,0,7.618-4.761.346.346,0,0,1,.476-.173.368.368,0,0,1,.173.5,10.194,10.194,0,0,1-6.644,4.87Z" transform="translate(-129.953 -77.609)" fill="#263238"/>
      <path id="Tracé_133" data-name="Tracé 133" d="M272.365,124.849a.779.779,0,0,1-.736-.216,6,6,0,0,0-5-1.926.714.714,0,0,1-.866-.584.736.736,0,0,1,.584-.866,7.4,7.4,0,0,1,6.341,2.359.714.714,0,0,1,0,1.039.865.865,0,0,1-.325.195Z" transform="translate(-129.807 -90.884)" fill="#263238"/>
      <path id="Tracé_134" data-name="Tracé 134" d="M260.105,127.022a.606.606,0,0,1-.433,0,.736.736,0,0,1-.454-.931A7.25,7.25,0,0,1,264,121.373a.738.738,0,0,1,.368,1.428,5.649,5.649,0,0,0-3.744,3.766.714.714,0,0,1-.519.454Z" transform="translate(-142.198 -90.61)" fill="#263238"/>
      <path id="Tracé_135" data-name="Tracé 135" d="M303.874,140.832s-10.821-3.961-15.756-10.237c0,0-9.826,2.575-11.838,6.493a4.891,4.891,0,0,1-.844-6.493s-7.358,1.558-8.808,6.493a6.19,6.19,0,0,1-3.463-6.493s-3.268,1.234-4.328,6.493c0,0-8.116-16.924,18.7-21.772a20,20,0,0,0-6.3-1.06s18.721-7.553,33.546-.649S317.033,133.885,303.874,140.832Z" transform="translate(-145.019 -110.697)" fill="#263238"/>
      <path id="Tracé_136" data-name="Tracé 136" d="M324.054,290.5l-25.971,3.463s-10.713-74.861-15.431-99.036v-51.6l13.57-3.571,10.518,3.571a253.2,253.2,0,0,1,6.644,31.6c1.277,8.094,2.424,16.751,3.441,25.516,1.407,11.947,2.576,24.11,3.571,35.493,1.558,18.374,2.6,34.628,3.16,44.562C323.881,286.736,324.054,290.5,324.054,290.5Z" transform="translate(-97.935 -55.89)" fill="#ba68c8"/>
      <path id="Tracé_137" data-name="Tracé 137" d="M287.818,199.079s2.164-36.424,13.57-55.21c0,0-.281-5.367-2.554-6.233s-11.016,4.328-11.016,4.328-5.432-3.723-6.623-1.991S277.1,153.219,287.818,199.079Z" transform="translate(-103.078 -60.083)" fill="#ba68c8"/>
      <path id="Tracé_138" data-name="Tracé 138" d="M287.818,199.079s2.164-36.424,13.57-55.21c0,0-.281-5.367-2.554-6.233s-11.016,4.328-11.016,4.328-5.432-3.723-6.623-1.991S277.1,153.219,287.818,199.079Z" transform="translate(-103.078 -60.083)" fill="#fff" opacity="0.7"/>
      <path id="Tracé_139" data-name="Tracé 139" d="M268.924,295.487l2.965,2.164s-4.328-24.131-2.554-85.163c0-2.943.195-5.779.3-8.484,2.164-51.639,10.215-61.032,10.821-61.594l-7.488,2.554-13.57,4.675C255.31,193.681,268.924,295.487,268.924,295.487Z" transform="translate(-143.225 -50.897)" fill="#ba68c8"/>
      <path id="Tracé_140" data-name="Tracé 140" d="M266.312,197.823s-7.488-35.407-5.259-47.613,10.215-6.774,10.215-6.774,7.337-5.93,9.523.606C280.791,144.042,270.706,151.14,266.312,197.823Z" transform="translate(-139.445 -53.611)" fill="#ba68c8"/>
      <path id="Tracé_141" data-name="Tracé 141" d="M266.312,197.823s-7.488-35.407-5.259-47.613,10.215-6.774,10.215-6.774,7.337-5.93,9.523.606C280.791,144.042,270.706,151.14,266.312,197.823Z" transform="translate(-139.445 -53.611)" fill="#fff" opacity="0.7"/>
      <path id="Tracé_142" data-name="Tracé 142" d="M302.683,177.436c-11.081-6.211-12.553-22.422-12.553-22.422.671-.26,4.783-1.666,9.111-3.095C300.518,160.014,301.665,168.671,302.683,177.436Z" transform="translate(-83.835 -32.965)" opacity="0.2"/>
      <path id="Tracé_143" data-name="Tracé 143" d="M276.529,284.385l9.328-50.751-1.8-26.858S271.27,253.349,276.529,284.385Z" transform="translate(-111.874 70.473)" opacity="0.2"/>
      <path id="Tracé_144" data-name="Tracé 144" d="M306.161,217.624c-6.969-.476-12.985-.931-12.985-.931l-1.32-28.33a10.063,10.063,0,0,1,7.294-1.342,79.692,79.692,0,0,0,3.874-13.959C304.537,191.437,305.6,207.712,306.161,217.624Z" transform="translate(-80.582 6.903)" opacity="0.2"/>
      <path id="Tracé_145" data-name="Tracé 145" d="M306.5,173.055l-13.57,21.794,10.735,6.168,12.747-19.63Z" transform="translate(-78.546 6.888)" fill="#e4897b"/>
      <path id="Tracé_146" data-name="Tracé 146" d="M294.912,140.88c9.133,1,47.959,54.279,49.669,70.338S321.77,255,321.77,255l-16.362-9.631s16.621-25.56,17.487-32.464-30.407-34.8-30.407-34.8a63,63,0,0,1-3.852-20.041C288.2,146.334,294.912,140.88,294.912,140.88Z" transform="translate(-86.691 -53.782)" fill="#ba68c8"/>
      <path id="Tracé_147" data-name="Tracé 147" d="M295.1,178.373s13.959,2.987,19.586,11.773c0,0-5.844,18.288-10.021,20.279s-14.522,1.991-14.522,1.991S289.475,192.072,295.1,178.373Z" transform="translate(-83.851 16.915)" fill="#ba68c8"/>
    </g>
  </g>
</svg>
